<?xml version="1.0" encoding="UTF-8" standalone="no"?>
<svg
   width="256"
   height="237"
   viewBox="0 0 256 237"
   fill="none"
   version="1.1"
   id="svg1"
   sodipodi:docname="chefHatIcon.svg"
   inkscape:version="1.4.3 (0d15f75042, 2025-12-25)"
   xmlns:inkscape="http://www.inkscape.org/namespaces/inkscape"
   xmlns:sodipodi="http://sodipodi.sourceforge.net/DTD/sodipodi-0.dtd"
   xmlns="http://www.w3.org/2000/svg"
   xmlns:svg="http://www.w3.org/2000/svg">
  <defs
     id="defs1" />
  <sodipodi:namedview
     id="namedview1"
     pagecolor="#ffffff"
     bordercolor="#000000"
     borderopacity="0.25"
     inkscape:showpageshadow="2"
     inkscape:pageopacity="0.0"
     inkscape:pagecheckerboard="0"
     inkscape:deskcolor="#d1d1d1"
     inkscape:zoom="1.2605596"
     inkscape:cx="-35.301783"
     inkscape:cy="49.581156"
     inkscape:window-width="1920"
     inkscape:window-height="1048"
     inkscape:window-x="0"
     inkscape:window-y="0"
     inkscape:window-maximized="1"
     inkscape:current-layer="svg1" />
  <path
     d="M28.4775 167.653C32.7849 170.401 37.4461 172.608 42.2815 174.21L42.2897 211.023C42.2928 224.905 53.589 236.199 67.4714 236.199H174.741C188.626 236.199 199.922 224.903 199.922 211.017V188.313C213.665 184.772 226.179 177.324 235.94 166.734C248.368 153.251 255.336 135.721 255.562 117.373C255.685 107.366 253.84 97.6225 250.078 88.4161C246.449 79.5332 241.199 71.5347 234.475 64.6433C227.751 57.7519 219.884 52.3072 211.093 48.4611C201.981 44.4746 192.287 42.3913 182.279 42.2683C181.971 42.2648 181.666 42.2627 181.36 42.2627C180.964 42.2627 180.567 42.2657 180.17 42.2722C178.284 38.3191 176.045 34.5328 173.473 30.9513C169.043 24.7832 163.717 19.3471 157.64 14.7928C151.481 10.177 144.68 6.56525 137.428 4.05878C129.93 1.46741 122.078 0.103516 114.089 0.00563079C113.782 0.0017327 113.472 0 113.164 0C94.6827 0 76.9702 6.84461 63.2905 19.2735C51.8522 29.6666 44.0214 43.232 40.7288 58.1275C33.8829 60.4694 27.5108 64.027 21.9772 68.6298C14.6718 74.706 8.80428 82.6088 5.00884 91.4839C-3.1399 110.536 -1.26233 132.208 10.0309 149.455C14.761 156.678 21.1391 162.971 28.4775 167.653ZM52.6543 74.1326C55.4159 73.6219 57.5339 71.3702 57.8141 68.5757C60.6415 40.4197 84.4116 18.5549 113.164 18.5549C113.396 18.5549 113.628 18.5562 113.86 18.5592C138.376 18.8603 158.99 34.9706 166.135 57.0763C166.997 59.7421 169.478 61.4911 172.21 61.4911C172.523 61.4911 172.839 61.4681 173.156 61.4209C175.834 61.0238 178.573 60.8171 181.359 60.8171C181.588 60.8171 181.819 60.8185 182.05 60.8215C212.779 61.1987 237.384 86.4155 237.008 117.145C236.656 145.74 214.797 169.027 187.002 171.821C183.793 172.144 181.367 174.879 181.367 178.105V211.018C181.367 214.677 178.4 217.644 174.74 217.644H163.237V177.476C163.237 172.352 159.083 168.198 153.959 168.198C148.835 168.198 144.682 172.352 144.682 177.476V217.644H132.304V177.476C132.304 172.352 128.15 168.198 123.027 168.198C117.903 168.198 113.749 172.352 113.749 177.476V217.644H98.9052V195.235C98.9052 190.112 94.7515 185.958 89.6277 185.958C84.5039 185.958 80.3503 190.112 80.3503 195.235V217.644H67.4705C63.8115 217.644 60.8447 214.678 60.8438 211.019L60.8338 164.564C60.833 161.432 58.5409 158.748 55.4384 158.315C43.289 156.618 32.2665 149.542 25.5539 139.29C9.13865 114.221 22.9851 79.6181 52.6543 74.1326Z"
     fill="black"
     id="path1"
     style="fill:#ff69b4;fill-opacity:1" />
</svg>
