<?xml version="1.0" encoding="UTF-8" standalone="no"?>
<!-- Uploaded to: SVG Repo, www.svgrepo.com, Generator: SVG Repo Mixer Tools -->

<svg
   width="800px"
   height="800px"
   viewBox="0 0 24 24"
   fill="none"
   version="1.1"
   id="svg8"
   sodipodi:docname="deliveryIcon.svg"
   inkscape:version="1.4.3 (0d15f75042, 2025-12-25)"
   xmlns:inkscape="http://www.inkscape.org/namespaces/inkscape"
   xmlns:sodipodi="http://sodipodi.sourceforge.net/DTD/sodipodi-0.dtd"
   xmlns="http://www.w3.org/2000/svg"
   xmlns:svg="http://www.w3.org/2000/svg">
  <defs
     id="defs8" />
  <sodipodi:namedview
     id="namedview8"
     pagecolor="#ffffff"
     bordercolor="#000000"
     borderopacity="0.25"
     inkscape:showpageshadow="2"
     inkscape:pageopacity="0.0"
     inkscape:pagecheckerboard="0"
     inkscape:deskcolor="#d1d1d1"
     inkscape:zoom="0.18672038"
     inkscape:cx="1684.3367"
     inkscape:cy="1614.7139"
     inkscape:window-width="1920"
     inkscape:window-height="1048"
     inkscape:window-x="0"
     inkscape:window-y="0"
     inkscape:window-maximized="1"
     inkscape:current-layer="svg8" />
  <path
     opacity="0.4"
     d="M11.9998 14H12.9998C14.0998 14 14.9998 13.1 14.9998 12V2H5.99976C4.49976 2 3.18977 2.82999 2.50977 4.04999"
     stroke="#292D32"
     stroke-width="1.5"
     stroke-linecap="round"
     stroke-linejoin="round"
     id="path1"
     style="stroke:#ff69b4;stroke-opacity:1;opacity:1" />
  <path
     d="M2 17C2 18.66 3.34 20 5 20H6C6 18.9 6.9 18 8 18C9.1 18 10 18.9 10 20H14C14 18.9 14.9 18 16 18C17.1 18 18 18.9 18 20H19C20.66 20 22 18.66 22 17V14H19C18.45 14 18 13.55 18 13V10C18 9.45 18.45 9 19 9H20.29L18.58 6.01001C18.22 5.39001 17.56 5 16.84 5H15V12C15 13.1 14.1 14 13 14H12"
     stroke="#292D32"
     stroke-width="1.5"
     stroke-linecap="round"
     stroke-linejoin="round"
     id="path2"
     style="stroke:#ff69b4;stroke-opacity:1" />
  <path
     d="M8 22C9.10457 22 10 21.1046 10 20C10 18.8954 9.10457 18 8 18C6.89543 18 6 18.8954 6 20C6 21.1046 6.89543 22 8 22Z"
     stroke="#292D32"
     stroke-width="1.5"
     stroke-linecap="round"
     stroke-linejoin="round"
     id="path3"
     style="stroke:#ff69b4;stroke-opacity:1" />
  <path
     d="M16 22C17.1046 22 18 21.1046 18 20C18 18.8954 17.1046 18 16 18C14.8954 18 14 18.8954 14 20C14 21.1046 14.8954 22 16 22Z"
     stroke="#292D32"
     stroke-width="1.5"
     stroke-linecap="round"
     stroke-linejoin="round"
     id="path4"
     style="stroke:#ff69b4;stroke-opacity:1" />
  <path
     d="M22 12V14H19C18.45 14 18 13.55 18 13V10C18 9.45 18.45 9 19 9H20.29L22 12Z"
     stroke="#292D32"
     stroke-width="1.5"
     stroke-linecap="round"
     stroke-linejoin="round"
     id="path5"
     style="stroke:#ff69b4;stroke-opacity:1" />
  <path
     d="M2 8H8"
     stroke="#292D32"
     stroke-width="1.5"
     stroke-linecap="round"
     stroke-linejoin="round"
     id="path6"
     style="stroke:#ff69b4;stroke-opacity:1" />
  <path
     d="M2 11H6"
     stroke="#292D32"
     stroke-width="1.5"
     stroke-linecap="round"
     stroke-linejoin="round"
     id="path7"
     style="stroke:#ff69b4;stroke-opacity:1" />
  <path
     d="M2 14H4"
     stroke="#292D32"
     stroke-width="1.5"
     stroke-linecap="round"
     stroke-linejoin="round"
     id="path8"
     style="stroke:#ff69b4;stroke-opacity:1" />
</svg>
