<?xml version="1.0" encoding="UTF-8" standalone="no"?>
<!-- Uploaded to: SVG Repo, www.svgrepo.com, Generator: SVG Repo Mixer Tools -->

<svg
   width="800px"
   height="800px"
   viewBox="0 0 24 24"
   fill="none"
   version="1.1"
   id="svg1"
   sodipodi:docname="filterIcon.svg"
   inkscape:version="1.4.3 (0d15f75042, 2025-12-25)"
   xmlns:inkscape="http://www.inkscape.org/namespaces/inkscape"
   xmlns:sodipodi="http://sodipodi.sourceforge.net/DTD/sodipodi-0.dtd"
   xmlns="http://www.w3.org/2000/svg"
   xmlns:svg="http://www.w3.org/2000/svg">
  <defs
     id="defs1" />
  <sodipodi:namedview
     id="namedview1"
     pagecolor="#ffffff"
     bordercolor="#000000"
     borderopacity="0.25"
     inkscape:showpageshadow="2"
     inkscape:pageopacity="0.0"
     inkscape:pagecheckerboard="0"
     inkscape:deskcolor="#d1d1d1"
     inkscape:zoom="0.37344077"
     inkscape:cx="938.56919"
     inkscape:cy="871.62417"
     inkscape:window-width="1920"
     inkscape:window-height="1048"
     inkscape:window-x="0"
     inkscape:window-y="0"
     inkscape:window-maximized="1"
     inkscape:current-layer="svg1" />
  <path
     d="M21 6H19M21 12H16M21 18H16M7 20V13.5612C7 13.3532 7 13.2492 6.97958 13.1497C6.96147 13.0615 6.93151 12.9761 6.89052 12.8958C6.84431 12.8054 6.77934 12.7242 6.64939 12.5617L3.35061 8.43826C3.22066 8.27583 3.15569 8.19461 3.10948 8.10417C3.06849 8.02393 3.03853 7.93852 3.02042 7.85026C3 7.75078 3 7.64677 3 7.43875V5.6C3 5.03995 3 4.75992 3.10899 4.54601C3.20487 4.35785 3.35785 4.20487 3.54601 4.10899C3.75992 4 4.03995 4 4.6 4H13.4C13.9601 4 14.2401 4 14.454 4.10899C14.6422 4.20487 14.7951 4.35785 14.891 4.54601C15 4.75992 15 5.03995 15 5.6V7.43875C15 7.64677 15 7.75078 14.9796 7.85026C14.9615 7.93852 14.9315 8.02393 14.8905 8.10417C14.8443 8.19461 14.7793 8.27583 14.6494 8.43826L11.3506 12.5617C11.2207 12.7242 11.1557 12.8054 11.1095 12.8958C11.0685 12.9761 11.0385 13.0615 11.0204 13.1497C11 13.2492 11 13.3532 11 13.5612V17L7 20Z"
     stroke="#000000"
     stroke-width="2"
     stroke-linecap="round"
     stroke-linejoin="round"
     id="path1"
     style="stroke-width:1.5;stroke-dasharray:none;stroke:#ff69b4;stroke-opacity:1" />
</svg>
