<?xml version="1.0" encoding="UTF-8" standalone="no"?>
<!-- Uploaded to: SVG Repo, www.svgrepo.com, Generator: SVG Repo Mixer Tools -->

<svg
   fill="#000000"
   width="800px"
   height="800px"
   viewBox="0 0 32 32"
   enable-background="new 0 0 32 32"
   id="Glyph"
   version="1.1"
   xml:space="preserve"
   sodipodi:docname="hamburger-menu-more-2-svgrepo-com.svg"
   inkscape:version="1.4.4 (dcaf3e7d9e, 2026-05-05)"
   xmlns:inkscape="http://www.inkscape.org/namespaces/inkscape"
   xmlns:sodipodi="http://sodipodi.sourceforge.net/DTD/sodipodi-0.dtd"
   xmlns="http://www.w3.org/2000/svg"
   xmlns:svg="http://www.w3.org/2000/svg"><defs
     id="defs1" /><sodipodi:namedview
     id="namedview1"
     pagecolor="#ffffff"
     bordercolor="#000000"
     borderopacity="0.25"
     inkscape:showpageshadow="2"
     inkscape:pageopacity="0.0"
     inkscape:pagecheckerboard="0"
     inkscape:deskcolor="#d1d1d1"
     inkscape:zoom="1.05625"
     inkscape:cx="400"
     inkscape:cy="400"
     inkscape:window-width="1920"
     inkscape:window-height="1048"
     inkscape:window-x="0"
     inkscape:window-y="0"
     inkscape:window-maximized="1"
     inkscape:current-layer="Glyph" /><path
     d="M26,16c0,1.104-0.896,2-2,2H8c-1.104,0-2-0.896-2-2s0.896-2,2-2h16C25.104,14,26,14.896,26,16z"
     id="XMLID_314_"
     style="fill:#ff69b4;fill-opacity:1" /><path
     d="M26,8c0,1.104-0.896,2-2,2H8c-1.104,0-2-0.896-2-2s0.896-2,2-2h16C25.104,6,26,6.896,26,8z"
     id="XMLID_315_"
     style="fill:#ff69b4;fill-opacity:1" /><path
     d="M26,24c0,1.104-0.896,2-2,2H8c-1.104,0-2-0.896-2-2s0.896-2,2-2h16C25.104,22,26,22.896,26,24z"
     id="XMLID_316_"
     style="fill:#ff69b4;fill-opacity:1" /></svg>
